<?xml version="1.0" encoding="UTF-8"?>
<svg version="1.1" xmlns="http://www.w3.org/2000/svg" width="200" height="200">
<path d="M0 0 C66 0 132 0 200 0 C200 66 200 132 200 200 C134 200 68 200 0 200 C0 134 0 68 0 0 Z " fill="#FEFEFE" transform="translate(0,0)"/>
<path d="M0 0 C0 2.64 0 5.28 0 8 C-0.73524902 7.98952637 -1.47049805 7.97905273 -2.22802734 7.96826172 C-5.61031576 7.92628202 -8.99254907 7.9005417 -12.375 7.875 C-14.10943359 7.84986328 -14.10943359 7.84986328 -15.87890625 7.82421875 C-35.19841965 7.71506896 -51.71156709 14.22324087 -65.875 27.375 C-72.65789338 34.66157358 -77.44079706 43.76953962 -81 53 C-81.32097656 53.83015625 -81.64195313 54.6603125 -81.97265625 55.515625 C-85.34137543 66.23285254 -84.24241433 77.90281065 -84 89 C-80.37 89 -76.74 89 -73 89 C-73.13196777 87.76942871 -73.26393555 86.53885742 -73.39990234 85.27099609 C-74.49307228 70.47196596 -70.26992029 62.29223092 -61.625 50.625 C-60.54910414 49.10327837 -59.4774659 47.57853735 -58.41015625 46.05078125 C-55.82307832 42.36834437 -53.18412896 38.72743356 -50.52502441 35.09680176 C-49.0035259 33.00484786 -47.50523706 30.89824695 -46.01464844 28.78417969 C-45.55093842 28.12735199 -45.08722839 27.47052429 -44.60946655 26.79379272 C-43.73797822 25.55745735 -42.86843787 24.31974587 -42.00112915 23.08047485 C-41.02527281 21.70261859 -40.0162869 20.34831169 -39 19 C-38.67 19 -38.34 19 -38 19 C-37.505 36.82 -37.505 36.82 -37 55 C-34.586875 51.37 -32.17375 47.74 -29.6875 44 C-24.69125875 36.5043624 -19.69417525 29.00908254 -14.625 21.5625 C-14.17987061 20.90185547 -13.73474121 20.24121094 -13.27612305 19.56054688 C-10.23323118 15.11661559 -10.23323118 15.11661559 -8 14 C-8 35.12 -8 56.24 -8 78 C-7.34 78 -6.68 78 -6 78 C-5.95609131 77.01427002 -5.91218262 76.02854004 -5.86694336 75.01293945 C-5.29242554 63.32976846 -4.01351805 51.790368 -2.5625 40.1875 C-2.12328432 36.63968912 -1.68765826 33.09145148 -1.25390625 29.54296875 C-1.09433945 28.24768753 -1.09433945 28.24768753 -0.93154907 26.92623901 C-0.05013211 19.66980652 0.68113021 12.40185566 1.33140564 5.12113953 C1.89310192 -0.89310192 1.89310192 -0.89310192 3 -2 C4.92667507 -2.08748207 6.85651861 -2.10697334 8.78515625 -2.09765625 C9.95498047 -2.09443359 11.12480469 -2.09121094 12.33007812 -2.08789062 C13.56177734 -2.07951172 14.79347656 -2.07113281 16.0625 -2.0625 C17.91584961 -2.05573242 17.91584961 -2.05573242 19.80664062 -2.04882812 C22.87114117 -2.03699608 25.93554721 -2.02051173 29 -2 C29.48519222 7.16635394 29.96412588 16.33302854 30.4375 25.5 C30.47227573 26.17336521 30.50705147 26.84673042 30.54288101 27.54050064 C31.59874046 48.02181052 32.52845043 68.49572408 33 89 C38.61 89 44.22 89 50 89 C50.69787287 65.56310278 48.36126453 45.95748546 32 28 C30.97230364 25.05760745 30.89192255 22.34926676 30.9375 19.25 C30.94652344 18.45078125 30.95554687 17.6515625 30.96484375 16.828125 C30.97644531 16.22484375 30.98804688 15.6215625 31 15 C45.20941445 23.17041331 53.35685912 39.46338721 58.125 54.5625 C59.78130346 61.06940645 60.2061126 67.38612854 60.25 74.0625 C60.2809375 75.19848633 60.2809375 75.19848633 60.3125 76.35742188 C60.36413167 84.17316647 58.73967606 89.88151174 57 98 C8.16 98 -40.68 98 -91 98 C-93.03557717 89.8576913 -94.5088164 83.70397308 -94.375 75.625 C-94.36484863 74.7187085 -94.35469727 73.81241699 -94.34423828 72.87866211 C-93.93948731 55.20924258 -88.20341438 39.73321762 -77 26 C-76.05833984 24.81277344 -76.05833984 24.81277344 -75.09765625 23.6015625 C-58.92939183 4.22609635 -24.93515163 -10.51228989 0 0 Z " fill="#C4BFF0" transform="translate(117,57)"/>
<path d="M0 0 C2.97 0 5.94 0 9 0 C9.94333669 9.26605812 10.38399324 18.52249897 10.75390625 27.82421875 C10.81221224 29.24272665 10.87076501 30.66122442 10.92956543 32.07971191 C11.1435197 37.2821864 11.35273533 42.4848549 11.5625 47.6875 C12.036875 59.340625 12.51125 70.99375 13 83 C-16.04 83 -45.08 83 -75 83 C-75 62.2740017 -75 62.2740017 -67.0625 51.875 C-66.30775391 50.81152344 -65.55300781 49.74804688 -64.77539062 48.65234375 C-62.90603342 46.04697953 -61.04093049 43.47330167 -59 41 C-58.67 41 -58.34 41 -58 41 C-57.67 53.54 -57.34 66.08 -57 79 C-53.98552734 74.4521875 -53.98552734 74.4521875 -50.91015625 69.8125 C-48.97161307 66.89300305 -47.03188643 63.97429586 -45.09204102 61.05566406 C-43.73956147 59.01937944 -42.38832298 56.98226998 -41.03833008 54.94433594 C-39.10299481 52.02323585 -37.1632848 49.1050853 -35.22265625 46.1875 C-34.61535172 45.26880127 -34.00804718 44.35010254 -33.38233948 43.40356445 C-32.82183395 42.56269287 -32.26132843 41.72182129 -31.68383789 40.85546875 C-31.18864151 40.10934326 -30.69344513 39.36321777 -30.1832428 38.59448242 C-29.79277267 38.06830322 -29.40230255 37.54212402 -29 37 C-28.67 37 -28.34 37 -28 37 C-28 51.52 -28 66.04 -28 81 C-21.73 81 -15.46 81 -9 81 C-8.80180664 77.73234741 -8.80180664 77.73234741 -8.59960938 74.39868164 C-8.10694225 66.77608071 -7.30945165 59.2061975 -6.40625 51.62109375 C-6.25466431 50.32478531 -6.10307861 49.02847687 -5.94689941 47.69288635 C-5.62980102 44.98272787 -5.31029971 42.27286863 -4.98876953 39.56323242 C-4.57835793 36.10413693 -4.17257823 32.6445178 -3.76837921 29.18469143 C-3.37859822 25.85078421 -2.98617559 22.51719077 -2.59375 19.18359375 C-2.44893188 17.94919052 -2.30411377 16.71478729 -2.15490723 15.44297791 C-1.94964417 13.71441307 -1.94964417 13.71441307 -1.74023438 11.95092773 C-1.62111694 10.94360092 -1.50199951 9.93627411 -1.37927246 8.89842224 C-0.98928896 5.9181456 -0.51133058 2.96166262 0 0 Z " fill="#FDFDFE" transform="translate(128,63)"/>
<path d="M0 0 C4.29 0 8.58 0 13 0 C13 4.29 13 8.58 13 13 C8.71 13 4.42 13 0 13 C0 8.71 0 4.42 0 0 Z " fill="#C3BEF0" transform="translate(125,30)"/>
<path d="M0 0 C2.97 0 5.94 0 9 0 C9 2.97 9 5.94 9 9 C6.03 9 3.06 9 0 9 C0 6.03 0 3.06 0 0 Z " fill="#C6C1F0" transform="translate(110,26)"/>
<path d="M0 0 C2.64 0 5.28 0 8 0 C8 2.64 8 5.28 8 8 C5.36 8 2.72 8 0 8 C0 5.36 0 2.72 0 0 Z " fill="#C8C3F1" transform="translate(98,12)"/>
<path d="M0 0 C1.98 0 3.96 0 6 0 C6 1.65 6 3.3 6 5 C4.02 5 2.04 5 0 5 C0 3.35 0 1.7 0 0 Z " fill="#C9C4F1" transform="translate(96,27)"/>
<path d="M0 0 C1.98 0 3.96 0 6 0 C6 1.65 6 3.3 6 5 C4.02 5 2.04 5 0 5 C0 3.35 0 1.7 0 0 Z " fill="#C9C4F1" transform="translate(86,14)"/>
</svg>
